<svg width="33" height="32" viewBox="0 0 33 32" fill="none" xmlns="http://www.w3.org/2000/svg">
<rect x="0.36377" width="31.9969" height="31.9969" rx="6" fill="white"/>
<g clip-path="url(#clip0_3002_11362)">
<path d="M20.9466 16.5001C20.9466 14.0443 18.9558 12.0535 16.5001 12.0535C14.0443 12.0535 12.0535 14.0443 12.0535 16.5001C12.0535 18.9558 14.0443 20.9466 16.5001 20.9466C18.9558 20.9466 20.9466 18.9558 20.9466 16.5001Z" fill="white"/>
<path fill-rule="evenodd" clip-rule="evenodd" d="M4.85537 12.0214C2.38187 14.495 2.38187 18.5054 4.85537 20.979L12.0214 28.1451C14.495 30.6186 18.5054 30.6186 20.979 28.1451L28.1451 20.979C30.6186 18.5054 30.6186 14.495 28.1451 12.0214L20.979 4.85537C18.5054 2.38187 14.495 2.38187 12.0214 4.85537L4.85537 12.0214ZM19.6353 19.6353C21.3669 17.9039 21.3669 15.0965 19.6353 13.3651C17.9039 11.6336 15.0965 11.6336 13.3651 13.3651C11.6336 15.0965 11.6336 17.9039 13.3651 19.6353C15.0965 21.3669 17.9039 21.3669 19.6353 19.6353Z" fill="#2962FF"/>
</g>
<defs>
<clipPath id="clip0_3002_11362">
<rect width="27" height="27" fill="white" transform="translate(3 3)"/>
</clipPath>
</defs>
</svg>
