<svg width="33" height="32" viewBox="0 0 33 32" fill="none" xmlns="http://www.w3.org/2000/svg">
<rect x="0.36377" width="31.9969" height="31.9969" rx="6" fill="white"/>
<g clip-path="url(#clip0_3143_6150)">
<path d="M5.25809 6.86405C5.2272 6.86398 5.19637 6.86418 5.16561 6.86475C5.02498 6.86728 4.88569 6.87645 4.74806 6.89231C3.64703 7.01912 2.65533 7.60483 2.04737 8.62844C1.45165 9.63144 1.30507 10.7359 1.60869 11.7592C1.91231 12.7826 2.64779 13.7123 3.73666 14.4489C3.74323 14.4533 3.74991 14.4576 3.75671 14.4617C4.69052 15.0248 5.6202 15.4045 6.61614 15.6008C6.59184 16.0119 6.5925 16.4342 6.61881 16.8667C6.69833 18.1739 7.16003 19.3773 7.86032 20.4408L5.3507 21.4653C5.08002 21.5716 4.9485 21.8787 5.05839 22.1479C5.16829 22.4171 5.47713 22.5444 5.74483 22.4309L8.50503 21.3041C9.0169 21.9144 9.60503 22.4669 10.2362 22.9521C10.2603 22.9706 10.2848 22.9887 10.309 23.007L8.69223 25.1478C8.51447 25.3775 8.5586 25.7081 8.79035 25.8832C9.02211 26.0582 9.3522 26.0102 9.52446 25.7763L11.1665 23.602C12.0688 24.1735 13.0265 24.6189 13.9715 24.9138C14.4565 25.8028 15.4045 26.3688 16.5 26.3688C17.606 26.3688 18.5545 25.7598 19.0355 24.888C19.971 24.5878 20.9176 24.1407 21.8104 23.5714L23.4756 25.7763C23.6479 26.0102 23.978 26.0582 24.2097 25.8832C24.4415 25.7081 24.4856 25.3775 24.3079 25.1478L22.6666 22.9746C22.6775 22.9664 22.6886 22.9583 22.6994 22.95C23.3231 22.4726 23.9061 21.9304 24.417 21.3324L27.1076 22.4309C27.3753 22.5444 27.6841 22.4171 27.794 22.1479C27.9039 21.8787 27.7724 21.5716 27.5017 21.4653L25.0726 20.4737C25.7951 19.4038 26.2796 18.1914 26.3808 16.8739C26.4142 16.4388 26.4208 16.0127 26.4016 15.5972C27.3908 15.3999 28.3151 15.0214 29.2434 14.4617C29.2502 14.4576 29.2569 14.4533 29.2634 14.4489C30.3523 13.7123 31.0878 12.7826 31.3914 11.7592C31.695 10.7359 31.5484 9.63144 30.9527 8.62844C30.3448 7.60483 29.3531 7.01912 28.252 6.89231C28.1144 6.87645 27.9751 6.86728 27.8345 6.86475C26.85 6.847 25.7996 7.15232 24.7896 7.73536C24.0467 8.16425 23.3768 8.82104 22.8526 9.53769C21.3862 8.69849 19.4782 8.22595 17.1339 8.18721C16.9237 8.18374 16.7099 8.18373 16.4926 8.18728C13.8793 8.22995 11.7873 8.72528 10.2071 9.62094C10.2032 9.61471 10.1992 9.60858 10.195 9.60255C9.66414 8.86069 8.97583 8.1772 8.21046 7.73536C7.23205 7.17054 6.21567 6.86637 5.25809 6.86405Z" stroke="white" stroke-width="0.912494" stroke-linecap="round" stroke-linejoin="round"/>
<path d="M23.176 9.86803C23.6743 9.17168 24.3284 8.52832 25.0176 8.13047C27.1901 6.87631 29.4831 7.0478 30.5603 8.86145C31.6389 10.6773 31.0487 12.6903 29.0076 14.071C27.9662 14.6989 26.9567 15.0787 25.839 15.2293M9.82383 9.86803C9.32552 9.17168 8.67142 8.52832 7.98223 8.13047C5.80972 6.87631 3.51668 7.0478 2.43948 8.86145C1.36094 10.6773 1.95108 12.6903 3.99215 14.071C5.03355 14.6989 6.04308 15.0787 7.16075 15.2293" fill="white"/>
<path d="M23.176 9.86803C23.6743 9.17168 24.3284 8.52832 25.0176 8.13047C27.1901 6.87631 29.4831 7.0478 30.5603 8.86145C31.6389 10.6773 31.0487 12.6903 29.0076 14.071C27.9662 14.6989 26.9567 15.0787 25.839 15.2293M9.82383 9.86803C9.32552 9.17168 8.67142 8.52832 7.98223 8.13047C5.80972 6.87631 3.51668 7.0478 2.43948 8.86145C1.36094 10.6773 1.95108 12.6903 3.99215 14.071C5.03355 14.6989 6.04308 15.0787 7.16075 15.2293" stroke="black" stroke-width="0.912494" stroke-linecap="round" stroke-linejoin="round"/>
<path d="M25.9257 16.839C26.3005 11.9572 23.2974 8.5325 16.4999 8.64349C9.70229 8.75448 6.779 11.9885 7.07406 16.839C7.35572 21.4693 12.8359 24.8691 16.4636 24.8691C20.0914 24.8691 25.5707 21.4621 25.9257 16.839Z" fill="white" stroke="black" stroke-width="0.912494" stroke-linecap="round" stroke-linejoin="round"/>
<path d="M19.71 19.0363C19.71 19.7895 20.3196 20.4 21.0716 20.4C21.8236 20.4 22.4332 19.7895 22.4332 19.0363C22.4332 18.2831 21.8236 17.6725 21.0716 17.6725C20.3196 17.6725 19.71 18.2831 19.71 19.0363ZM10.5668 19.0363C10.5668 19.7964 11.182 20.4126 11.9409 20.4126C12.6998 20.4126 13.3151 19.7964 13.3151 19.0363C13.3151 18.2761 12.6998 17.6599 11.9409 17.6599C11.182 17.6599 10.5668 18.2761 10.5668 19.0363Z" fill="black"/>
<path d="M10.8859 23.1082L9.10833 25.462M22.1142 23.1082L23.8917 25.462M8.40761 20.7805L5.54773 21.948M24.4447 20.7805L27.3046 21.948" stroke="black" stroke-width="1.04285" stroke-linecap="round"/>
<path d="M16.5 21.2783C15.0053 21.2783 14.0516 22.3161 14.0838 23.5954C14.1187 24.9809 15.1419 25.9126 16.5 25.9126C17.8581 25.9126 18.9133 24.8373 18.9162 23.5954C18.9192 22.3157 17.9947 21.2783 16.5 21.2783Z" fill="white" stroke="black" stroke-width="0.912494" stroke-linecap="round" stroke-linejoin="round"/>
</g>
<defs>
<clipPath id="clip0_3143_6150">
<rect width="31" height="20.4173" fill="white" transform="translate(1 6.40771)"/>
</clipPath>
</defs>
</svg>
