<svg width="32" height="32" viewBox="0 0 32 32" fill="none" xmlns="http://www.w3.org/2000/svg">
<rect width="32" height="32" rx="6" fill="black"/>
<path d="M26.4378 12.6837L26.5335 12.3265L26.6272 11.9694L26.9469 11H29.5L27.3716 19.6224C26.6913 21.1102 24.6403 21.3908 23.5751 20.0112L21.0659 14.3643C20.3673 15.602 18.7206 20.2184 17.8081 20.6612C13.8283 21.7541 14.7245 17.5235 13.8355 15.0724C12.5544 17.0235 11.978 22.5969 8.41977 20.4031C7.43298 18.8704 6.81483 16.7949 6.02152 15.0878L4.995 21H2.5V20.5714L3.73019 12.8878C4.11106 11.3092 6.15289 10.7388 7.43909 11.9704L9.88521 17.6398L12.3211 12.1051C13.4332 10.7041 15.3569 11.0429 16.1085 12.4969L16.9099 17.2378C16.9313 17.1429 19.2909 11.9714 19.3296 11.9184C20.2216 10.6929 22.2054 10.8265 22.9264 11.9694C22.9407 11.9918 25.2982 17.3388 25.2982 17.3388C25.4978 15.9806 26.0538 14.1112 26.4378 12.6837Z" fill="#6CD0A6"/>
</svg>
