<svg width="33" height="32" viewBox="0 0 33 32" fill="none" xmlns="http://www.w3.org/2000/svg">
<rect x="0.36377" width="31.9969" height="31.9969" rx="6" fill="#995ADA"/>
<path d="M26.5499 10.5098C26.4948 9.97063 26.3171 9.48358 25.974 9.0578C25.6708 8.68102 25.2818 8.41146 24.9142 8.1082C24.7304 7.95811 24.2433 7.5507 24.1821 7.32096C24.1085 7.04221 24.2219 6.75733 24.4761 6.66543C24.859 6.53678 25.4992 6.53984 25.8699 6.56435C26.1854 6.58885 26.5101 6.47858 26.5224 6.34992C26.5346 6.22127 26.3478 6.03135 26.0996 5.97315C25.9036 5.9272 25.6034 5.85674 25.4227 5.73728C25.101 5.51979 24.7733 5.12157 24.326 5.03274C23.6889 4.90715 23.2447 5.14608 23.0364 5.69439C22.7056 6.47858 22.92 7.48331 23.6154 8.21848C23.9278 8.54931 24.2923 8.83418 24.6415 9.13132C24.8989 9.35187 25.1255 9.59386 25.343 9.86342C25.925 10.5894 25.3093 11.9219 25.1623 12.0751C24.6477 12.6081 24.2004 12.7061 23.3121 12.6693C22.4391 12.6326 20.1754 11.4624 18.9777 11.4257C16.0125 11.3338 13.954 12.703 13.2587 13.0583C12.2172 13.5913 10.7346 13.625 10.6886 13.6404C10.0178 13.6924 8.62709 13.7445 7.93787 13.9834C6.96683 14.253 6.44302 14.6972 6.08769 15.6896C5.97741 16.1185 5.95597 16.5075 6.11219 16.7434C6.45221 17.258 7.36811 17.6869 7.78471 17.9227C7.99913 18.0453 8.42185 17.8921 8.50456 17.8339C8.97017 17.5184 9.38064 17.2703 9.93202 17.1906C10.0484 17.1722 10.8265 17.0344 11.2186 17.3223C11.5034 17.5306 11.7485 17.6562 12.0701 17.8033C12.6583 18.0698 13.954 18.4067 13.9785 18.4128C14.1531 18.4588 14.3767 18.5476 14.3767 18.7038C14.3767 18.9244 12.3183 20.6459 12.2049 20.6888C11.6872 20.9002 11.387 21.2402 11.2921 21.7303C11.2614 21.8896 11.191 22.055 11.1022 22.1867C10.7683 22.6707 9.28874 24.7721 8.89665 25.3479C8.70979 25.6175 8.51681 25.7523 8.25031 25.7952C7.86741 25.8564 7.57947 25.8656 7.41712 26.1383C7.31603 26.3129 7.38036 26.6529 7.44775 26.8734C7.52433 27.1246 7.31603 27.4371 7.30072 27.4738C7.11693 27.8322 7.04035 28.1753 7.06791 28.5214C7.0771 28.6623 7.08629 28.9901 7.3191 28.9993C7.5519 29.0115 7.61317 28.8614 7.64073 28.8063C7.67443 28.7389 7.80308 28.4602 7.83984 28.3928C7.98994 28.114 8.56276 27.5136 8.62709 27.4432C8.83232 27.2165 11.8955 22.9985 11.8955 22.9985C12.064 22.7779 12.2386 22.5512 12.5235 22.441C12.9186 22.2878 13.1821 21.9723 13.2587 21.5557C13.277 21.4638 14.4993 20.5265 15.02 20.1313C15.2099 19.9873 16.3617 19.5248 16.3801 19.5309C16.3801 19.5401 15.3263 21.1268 14.9986 21.9692C14.9465 22.104 14.8607 22.5635 14.9557 22.7963C15.1027 23.1547 15.4182 23.3109 15.7766 23.2037C15.8869 23.17 15.9849 23.1149 16.0799 23.0628C16.1228 23.0383 16.1656 23.0168 16.2085 22.9954C16.2514 22.974 16.2912 22.9525 16.3341 22.9311C16.4321 22.879 16.5271 22.83 16.6221 22.7994C16.9743 22.683 17.3297 22.5727 17.685 22.4624L18.4049 22.2388C18.9072 22.0826 19.4096 21.9263 19.9119 21.7732C20.0222 21.7395 20.1294 21.6997 20.2673 21.7027C20.3439 21.7027 20.4266 21.7334 20.4541 21.8467C20.4541 21.8528 20.5123 22.1959 20.7237 22.3337C20.8309 22.4042 21.0607 22.4593 21.2322 22.4532C21.3823 22.4471 21.5722 22.49 21.6702 22.5757L21.7958 22.683C21.8877 22.7595 22.0011 22.8024 22.0776 22.8239C22.1573 22.8453 22.3043 22.8453 22.3901 22.7565C22.482 22.6584 22.4483 22.4992 22.436 22.4501C22.4177 22.3828 22.3809 22.3307 22.3533 22.2847L22.2767 22.1653C22.2032 22.0489 22.1328 21.9325 22.0562 21.8161C21.8448 21.4944 21.6365 21.1759 21.4221 20.8573C21.1985 20.5265 20.8524 20.3947 20.399 20.4652C20.2244 20.4928 16.3923 21.6813 16.3648 21.6874C16.57 21.3106 17.7983 19.6136 18.1414 19.3992C18.3957 19.2491 18.5029 19.1051 18.9654 19.0255C19.8691 18.8723 21.8295 18.419 22.3166 18.0667C23.2631 17.3805 23.3397 15.8214 23.3244 15.5089C23.306 15.1965 23.4071 14.982 23.6797 14.8381C23.8145 14.7676 25.2726 13.962 25.9863 12.7735C26.4151 12.0781 26.6357 11.3338 26.5499 10.5098Z" fill="white"/>
</svg>
