<svg width="32" height="32" viewBox="0 0 32 32" fill="none" xmlns="http://www.w3.org/2000/svg">
<rect width="32" height="32" rx="6" fill="#F5F1F5"/>
<path d="M12.9423 15.0265C12.8545 15.1619 12.7627 15.2614 12.6669 15.3251C12.5791 15.3809 12.4554 15.4087 12.2958 15.4087C12.1362 15.4087 11.9725 15.3689 11.8049 15.2893C11.6373 15.2097 11.4497 15.1261 11.2422 15.0385C11.0347 14.9429 10.7952 14.8553 10.5238 14.7757C10.2604 14.6961 9.95311 14.6563 9.60191 14.6563C9.06712 14.6563 8.65206 14.7677 8.35674 14.9907C8.06141 15.2057 7.91374 15.4924 7.91374 15.8507C7.91374 16.0975 7.99755 16.3046 8.16517 16.4718C8.33279 16.639 8.55229 16.7863 8.82367 16.9137C9.10304 17.0332 9.41832 17.1486 9.76953 17.2601C10.1207 17.3636 10.4799 17.4791 10.8471 17.6065C11.2222 17.7339 11.5854 17.8812 11.9366 18.0484C12.2878 18.2157 12.5991 18.4267 12.8705 18.6815C13.1498 18.9283 13.3733 19.2309 13.541 19.5893C13.7086 19.9396 13.7924 20.3656 13.7924 20.8673C13.7924 21.4645 13.6806 22.0179 13.4571 22.5276C13.2416 23.0292 12.9224 23.4632 12.4993 23.8295C12.0763 24.1958 11.5495 24.4824 10.9189 24.6895C10.2883 24.8965 9.562 25 8.73987 25C8.31683 25 7.89778 24.9602 7.48272 24.8806C7.06766 24.8089 6.67256 24.7054 6.29741 24.57C5.92227 24.4267 5.57106 24.2635 5.24381 24.0803C4.91655 23.8972 4.63319 23.6981 4.39374 23.4831L5.16 22.2528C5.2478 22.1095 5.35555 21.998 5.48326 21.9184C5.61895 21.8388 5.79056 21.7989 5.99809 21.7989C6.19764 21.7989 6.38122 21.8507 6.54884 21.9542C6.71646 22.0498 6.90404 22.1573 7.11156 22.2767C7.31909 22.3882 7.56254 22.4957 7.8419 22.5992C8.12925 22.6948 8.48445 22.7425 8.90748 22.7425C9.22676 22.7425 9.50213 22.7067 9.73361 22.6351C9.96508 22.5634 10.1527 22.4678 10.2963 22.3484C10.44 22.221 10.5438 22.0816 10.6076 21.9303C10.6795 21.7711 10.7154 21.6078 10.7154 21.4406C10.7154 21.1699 10.6276 20.9509 10.452 20.7837C10.2844 20.6085 10.0609 20.4572 9.7815 20.3298C9.51012 20.2024 9.19483 20.0869 8.83565 19.9834C8.47646 19.8799 8.1093 19.7644 7.73415 19.637C7.36698 19.5096 7.00381 19.3583 6.64462 19.1831C6.29342 19.008 5.97814 18.789 5.69877 18.5262C5.42739 18.2555 5.2039 17.925 5.0283 17.5348C4.86068 17.1446 4.77687 16.6709 4.77687 16.1135C4.77687 15.6038 4.87664 15.1221 5.07619 14.6682C5.27573 14.2063 5.57505 13.8002 5.97415 13.4499C6.37324 13.0995 6.86812 12.8208 7.45878 12.6138C8.05742 12.4067 8.74785 12.3032 9.53007 12.3032C10.4081 12.3032 11.2063 12.4466 11.9246 12.7332C12.643 13.0199 13.2337 13.3941 13.6966 13.856L12.9423 15.0265Z" fill="#263397"/>
<path d="M19.1654 7V17.1049H19.7161C19.9236 17.1049 20.0873 17.077 20.207 17.0213C20.3267 16.9576 20.4465 16.8461 20.5662 16.6868L23.296 13.0558C23.4317 12.8726 23.5833 12.7333 23.7509 12.6377C23.9265 12.5422 24.1461 12.4944 24.4095 12.4944H27.4266L23.8826 16.9854C23.6033 17.3597 23.28 17.6543 22.9129 17.8693C23.0964 17.9967 23.2561 18.144 23.3918 18.3113C23.5275 18.4785 23.6592 18.6656 23.7869 18.8726L27.6062 24.809H24.637C24.3815 24.809 24.162 24.7691 23.9784 24.6895C23.7948 24.6019 23.6432 24.4506 23.5235 24.2356L20.7458 19.7087C20.634 19.5176 20.5183 19.3942 20.3986 19.3385C20.2788 19.2827 20.0992 19.2549 19.8598 19.2549H19.1654V24.809H15.8609V7H19.1654Z" fill="#D3513E"/>
</svg>
