<svg width="33" height="32" viewBox="0 0 33 32" fill="none" xmlns="http://www.w3.org/2000/svg">
<rect x="0.36377" width="31.9969" height="31.9969" rx="6" fill="#0077FF"/>
<path fill-rule="evenodd" clip-rule="evenodd" d="M26.6669 9.94802C26.8282 9.40151 26.6669 9 25.8994 9H23.3614C22.716 9 22.4186 9.34691 22.2572 9.72933C22.2572 9.72933 20.9665 12.926 19.1382 15.0025C18.5467 15.6036 18.2777 15.7949 17.9551 15.7949C17.7937 15.7949 17.5518 15.6036 17.5518 15.0572V9.94795C17.5518 9.29231 17.3729 9 16.8351 9H12.8468C12.4435 9 12.201 9.30432 12.201 9.59279C12.201 10.2144 13.1152 10.3578 13.2094 12.1064V15.9042C13.2094 16.7368 13.0614 16.8878 12.7387 16.8878C11.8784 16.8878 9.78536 13.6768 8.54413 10.0026C8.30084 9.28847 8.05683 9 7.40819 9H4.87018C4.14503 9 4 9.34691 4 9.72933C4 10.4124 4.86046 13.8004 8.00636 18.2812C10.1036 21.3414 13.0585 23 15.7474 23C17.3607 23 17.5602 22.6316 17.5602 21.997V19.6842C17.5602 18.9474 17.7131 18.8003 18.224 18.8003C18.6003 18.8003 19.2457 18.9916 20.7515 20.467C22.4724 22.2156 22.7561 23 23.724 23H26.262C26.9871 23 27.3497 22.6316 27.1406 21.9045C26.9116 21.1799 26.0901 20.1285 24.9999 18.8823C24.4083 18.1719 23.521 17.4069 23.2521 17.0244C22.8757 16.5326 22.9832 16.314 23.2521 15.8769C23.2521 15.8769 26.3443 11.4507 26.6669 9.94802Z" fill="white"/>
</svg>
