<svg width="32" height="32" viewBox="0 0 32 32" fill="none" xmlns="http://www.w3.org/2000/svg">
<rect width="32" height="32" rx="6" fill="white"/>
<g clip-path="url(#clip0_4004_9850)">
<mask id="mask0_4004_9850" style="mask-type:luminance" maskUnits="userSpaceOnUse" x="4" y="10" width="24" height="12">
<path d="M27.5 10H4.5V21.9931H27.5V10Z" fill="white"/>
</mask>
<g mask="url(#mask0_4004_9850)">
<path d="M8.15426 10C6.64363 10 5.60228 10.6756 4.81422 11.4395C4.81422 11.4395 4.49602 11.7468 4.50004 11.7562L7.80963 15.1293L11.1186 11.7562C10.492 10.8769 9.3105 10 8.15426 10Z" fill="#FA4616"/>
<path d="M16.3264 10C14.8158 10 13.7744 10.6756 12.9863 11.4395C12.9863 11.4395 12.6957 11.7386 12.6825 11.7562L8.59177 15.926L11.8962 19.2938L19.2908 11.7562C18.6641 10.8769 17.4832 10 16.3264 10Z" fill="#FA4616"/>
<path d="M24.521 10C23.0103 10 21.969 10.6756 21.181 11.4395C21.181 11.4395 20.8782 11.741 20.8668 11.7562L12.6835 20.0976L13.5497 20.9804C14.8898 22.3461 17.0833 22.3461 18.4234 20.9804L27.475 11.7562H27.4854C26.8587 10.8769 25.6778 10 24.521 10Z" fill="#FA4616"/>
</g>
</g>
<defs>
<clipPath id="clip0_4004_9850">
<rect width="23" height="12" fill="white" transform="translate(4.5 10)"/>
</clipPath>
</defs>
</svg>
