<svg width="33" height="32" viewBox="0 0 33 32" fill="none" xmlns="http://www.w3.org/2000/svg">
<rect x="0.36377" width="31.9969" height="31.9969" rx="6" fill="white"/>
<g clip-path="url(#clip0_3002_11362)">
<path d="M3.99011 15.9996C3.99011 20.7534 6.75286 24.8617 10.7591 26.8085L5.02994 11.1118C4.36354 12.6055 3.99011 14.2584 3.99011 15.9996Z" fill="#21759B"/>
<path d="M24.1084 15.3936C24.1084 13.9093 23.5753 12.8813 23.118 12.0813C22.5092 11.092 21.9385 10.2542 21.9385 9.26489C21.9385 8.16086 22.7759 7.13317 23.9553 7.13317C24.0086 7.13317 24.0591 7.1398 24.111 7.14277C21.9742 5.18519 19.1273 3.98999 16.0005 3.98999C11.8046 3.98999 8.11311 6.14273 5.96558 9.40337C6.24736 9.41183 6.51292 9.41777 6.73848 9.41777C7.99473 9.41777 9.93933 9.26534 9.93933 9.26534C10.5868 9.22718 10.6631 10.1781 10.0163 10.2546C10.0163 10.2546 9.36571 10.3312 8.64171 10.3691L13.0154 23.3781L15.6438 15.4955L13.7725 10.3687C13.1258 10.3307 12.5131 10.2542 12.5131 10.2542C11.8659 10.2162 11.9417 9.22672 12.589 9.26489C12.589 9.26489 14.5724 9.41731 15.7525 9.41731C17.0086 9.41731 18.9534 9.26489 18.9534 9.26489C19.6013 9.22672 19.6774 10.1776 19.0304 10.2542C19.0304 10.2542 18.3784 10.3307 17.6558 10.3687L21.9961 23.2792L23.1941 19.276C23.7133 17.6149 24.1084 16.4217 24.1084 15.3936Z" fill="#21759B"/>
<path d="M16.2112 17.0503L12.6077 27.5212C13.6836 27.8375 14.8215 28.0105 16.0005 28.0105C17.3991 28.0105 18.7404 27.7687 19.9889 27.3297C19.9566 27.2783 19.9274 27.2237 19.9034 27.1643L16.2112 17.0503Z" fill="#21759B"/>
<path d="M26.5391 10.2375C26.5907 10.6201 26.62 11.0308 26.62 11.4725C26.62 12.6913 26.3923 14.0613 25.7067 15.7743L22.0381 26.381C25.6087 24.2989 28.0104 20.4306 28.0104 15.9999C28.0106 13.9118 27.4772 11.9483 26.5391 10.2375Z" fill="#21759B"/>
<path d="M16.0005 2C8.2808 2 2 8.28019 2 15.9997C2 23.72 8.2808 30 16.0005 30C23.7199 30 30.0016 23.72 30.0016 15.9997C30.0014 8.28019 23.7199 2 16.0005 2ZM16.0005 29.3583C8.6348 29.3583 2.64195 23.3656 2.64195 15.9997C2.64195 8.63418 8.63457 2.64194 16.0005 2.64194C23.3659 2.64194 29.3583 8.63418 29.3583 15.9997C29.3583 23.3656 23.3659 29.3583 16.0005 29.3583Z" fill="#21759B"/>
</g>
<defs>
<clipPath id="clip0_3002_11362">
<rect width="28" height="28" fill="white" transform="translate(2 2)"/>
</clipPath>
</defs>
</svg>
